<svg width="20" height="20" viewBox="0 0 20 20" fill="none" xmlns="http://www.w3.org/2000/svg">
<path fill-rule="evenodd" clip-rule="evenodd" d="M2.24168 4.20618C2.60001 3.33701 3.16085 3.11784 3.56751 3.08701C4.46501 3.02951 5.89251 3.62368 9.085 8.92368C9.31925 9.31226 9.6797 9.92688 9.99755 10.472C10.3154 9.92688 10.6759 9.31226 10.9101 8.92368C14.1026 3.62368 15.5301 3.02951 16.4276 3.08701C16.8343 3.11784 17.3951 3.33701 17.7534 4.20618C18.6709 6.42451 17.2551 13.1712 15.8284 15.6795C15.4457 16.3552 14.8971 16.9236 14.0776 16.9187C12.4686 16.9187 10.8686 14.511 9.99755 12.9438C9.12651 14.511 7.52655 16.9187 5.91751 16.9187C5.098 16.9236 4.54939 16.3552 4.16668 15.6795C2.74001 13.1712 1.32418 6.42451 2.24168 4.20618ZM7.83579 9.67615C6.2613 7.06226 5.19064 5.72916 4.47481 5.06633C4.12537 4.74276 3.90351 4.61981 3.79363 4.57357C3.7557 4.55761 3.7285 4.54943 3.70865 4.54538L3.70214 4.55368C3.67808 4.58521 3.63658 4.64886 3.58993 4.76202L3.58929 4.76355C3.48138 5.02446 3.38783 5.6071 3.41259 6.54347C3.43607 7.43178 3.56015 8.48371 3.75953 9.57108C4.16624 11.7892 4.84068 13.9148 5.43431 14.9585L5.43559 14.9608C5.5734 15.2041 5.69409 15.3406 5.77956 15.4078C5.84192 15.4568 5.86996 15.4606 5.90871 15.4604L5.91751 15.4603C5.98356 15.4603 6.24046 15.4086 6.69647 15.0026C7.12444 14.6216 7.56514 14.0721 7.97732 13.4591C8.38277 12.8561 8.72562 12.2446 8.96884 11.7788C8.98537 11.7472 9.0014 11.7162 9.01692 11.6861L8.80489 11.3217C8.47127 10.7491 8.08036 10.0818 7.83579 9.67615ZM12.1593 9.67615C13.7338 7.06226 14.8045 5.72916 15.5203 5.06633C15.8697 4.74276 16.0916 4.61981 16.2015 4.57357C16.2394 4.55761 16.2666 4.54943 16.2865 4.54538L16.293 4.55368C16.317 4.58521 16.3585 4.64886 16.4052 4.76202L16.4058 4.76355C16.5137 5.02446 16.6073 5.6071 16.5825 6.54347C16.559 7.43178 16.435 8.48371 16.2356 9.57108C15.8289 11.7892 15.1544 13.9148 14.5608 14.9585L14.5595 14.9608C14.4217 15.2041 14.301 15.3406 14.2156 15.4078C14.1532 15.4568 14.1251 15.4606 14.0864 15.4604L14.0776 15.4603C14.0116 15.4603 13.7546 15.4086 13.2986 15.0026C12.8707 14.6216 12.43 14.0721 12.0178 13.4591C11.6123 12.8561 11.2695 12.2446 11.0263 11.7788C11.0097 11.7472 10.9937 11.7162 10.9782 11.6861L11.1902 11.3217C11.5238 10.7491 11.9148 10.0818 12.1593 9.67615Z" fill="#FA9D3B"/>
</svg>
