<svg width="16" height="16" viewBox="0 0 16 16" fill="none" xmlns="http://www.w3.org/2000/svg">
<rect width="1719" height="1028" transform="translate(-195 -45)" fill="none"/>
<g clip-path="url(#clip0_1865_2435)">
<path fill-rule="evenodd" clip-rule="evenodd" d="M13.9802 6.83413C13.7265 3.75401 11.1462 1.33337 8.00065 1.33337C4.85506 1.33337 2.27484 3.75401 2.02113 6.83413C1.61133 7.06162 1.33398 7.49878 1.33398 8.00071V9.0674C1.33398 9.80379 1.93093 10.4008 2.66731 10.4008H3.73397C4.10216 10.4008 4.40063 10.1023 4.40063 9.73408V7.33404C4.40063 6.96584 4.10216 6.66736 3.73397 6.66736H3.04462C3.37026 4.2208 5.46504 2.33337 8.00065 2.33337C10.5363 2.33337 12.631 4.2208 12.9567 6.66736H12.2673C11.8991 6.66736 11.6007 6.96584 11.6007 7.33404V9.73408C11.6007 10.0783 11.8616 10.3616 12.1964 10.397C11.5469 11.3901 10.5533 12.1385 9.38455 12.4733C9.13788 11.9568 8.61068 11.6 8.00013 11.6C7.15329 11.6 6.4668 12.2865 6.4668 13.1333C6.4668 13.9801 7.15329 14.6666 8.00013 14.6666C8.72776 14.6666 9.33701 14.1598 9.49412 13.4799C11.1769 13.0502 12.5754 11.9111 13.3511 10.4006C14.0796 10.3915 14.6673 9.79807 14.6673 9.0674V8.00072C14.6673 7.49878 14.39 7.06162 13.9802 6.83413Z" fill="white" fill-opacity="0.8"/>
</g>
<defs>
<clipPath id="clip0_1865_2435">
<rect width="16" height="16" fill="white"/>
</clipPath>
</defs>
</svg>
