<?xml version="1.0" encoding="UTF-8"?>
<svg width="24px" height="24px" viewBox="0 0 40 40" version="1.1" xmlns="http://www.w3.org/2000/svg" xmlns:xlink="http://www.w3.org/1999/xlink">
    <title>9.元素/加载/White</title>
    <defs>
        <linearGradient x1="94.0869141%" y1="0%" x2="94.0869141%" y2="90.559082%" id="linearGradient-1">
            <stop stop-color="#606060" stop-opacity="0" offset="0%"></stop>
            <stop stop-color="#606060" stop-opacity="0.3" offset="100%"></stop>
        </linearGradient>
        <linearGradient x1="100%" y1="8.67370605%" x2="100%" y2="90.6286621%" id="linearGradient-2">
            <stop stop-color="#606060" offset="0%"></stop>
            <stop stop-color="#606060" stop-opacity="0.3" offset="100%"></stop>
        </linearGradient>
    </defs>
    <g id="页面-1" stroke="none" stroke-width="1" fill="none" fill-rule="evenodd" opacity="0.9">
        <g id="9.元素/Toast/加载中" transform="translate(-48.000000, -28.000000)">
            <g id="LoadingDefault" transform="translate(48.000000, 28.000000)">
                <path d="M20,0 C31.045695,0 40,8.954305 40,20 C40,31.045695 31.045695,40 20,40 L20,36.5 C29.1126984,36.5 36.5,29.1126984 36.5,20 C36.5,10.8873016 29.1126984,3.5 20,3.5 L20,0 Z" id="路径" fill="url(#linearGradient-1)"></path>
                <path d="M20,0 L20,3.5 C10.8873016,3.5 3.5,10.8873016 3.5,20 C3.5,29.1126984 10.8873016,36.5 20,36.5 L20,40 C8.954305,40 0,31.045695 0,20 C0,8.954305 8.954305,0 20,0 Z" id="路径" fill="url(#linearGradient-2)"></path>
                <circle id="Oval" fill="#606060" cx="20.25" cy="1.75" r="1.75"></circle>
            </g>
        </g>
    </g>
</svg>