<svg width="12" height="12" viewBox="0 0 12 12" fill="none" xmlns="http://www.w3.org/2000/svg">
<path fill-rule="evenodd" clip-rule="evenodd" d="M3.75 3.25C3.75 2.00736 4.75736 1 6 1C7.24264 1 8.25 2.00736 8.25 3.25V4.5H9.49956C9.77595 4.5 10 4.72374 10 4.99925V10.5007C10 10.7765 9.77768 11 9.49956 11H2.50044C2.22405 11 2 10.7763 2 10.5007V4.99925C2 4.72352 2.22232 4.5 2.50044 4.5H3.75V3.25ZM7.25 3.25V4.5H4.75V3.25C4.75 2.55964 5.30964 2 6 2C6.69036 2 7.25 2.55964 7.25 3.25ZM6.875 7.37744C6.875 7.70131 6.69904 7.98409 6.4375 8.13538V9.34619H5.5625V8.13538C5.30096 7.98409 5.125 7.70131 5.125 7.37744C5.125 6.89419 5.51675 6.50244 6 6.50244C6.48325 6.50244 6.875 6.89419 6.875 7.37744Z" fill="white"/>
</svg>
