<svg width="54" height="54" viewBox="0 0 54 54" fill="none" xmlns="http://www.w3.org/2000/svg">
<circle cx="27" cy="27" r="27" fill="#F7F7F7"/>
<path fill-rule="evenodd" clip-rule="evenodd" d="M18.5 36C17.9477 36 17.5 35.5523 17.5 35L17.5 34.3155C17.5 33.6304 17.9982 32.8319 18.6141 32.5313L24.2745 29.7691C25.0954 29.3685 25.2863 28.4813 24.6934 27.7786L24.3319 27.3501C23.5963 26.4783 23 24.8495 23 23.7093V21.9996C23 19.7907 24.7954 18 27 18C29.2091 18 31 19.793 31 22.0002V23.7102C31 24.8493 30.4009 26.4829 29.6681 27.3516L29.3066 27.7801C28.717 28.479 28.9012 29.3684 29.7255 29.7705L35.3859 32.5316C36.0012 32.8317 36.5 33.6252 36.5 34.3155V35C36.5 35.5523 36.0523 36 35.5 36H18.5Z" fill="black" fill-opacity="0.1"/>
</svg>
