<svg width="32" height="32" viewBox="0 0 32 32" fill="none" xmlns="http://www.w3.org/2000/svg">
<rect width="1719" height="1028" transform="translate(-143 -35)" fill="none"/>
<path fill-rule="evenodd" clip-rule="evenodd" d="M17.8556 6.79142C18.0508 6.59615 18.0508 6.27957 17.8556 6.08431L17.0778 5.30649L14.4379 2.66663L13.3065 3.798L14.8923 5.38374C8.78413 5.9428 4 11.0793 4 17.3333C4 23.9607 9.37258 29.3333 16 29.3333C22.6274 29.3333 28 23.9607 28 17.3333C28 14.0196 26.6569 11.0196 24.4853 8.84801L23.3539 9.97938C25.2927 11.9182 26.4 14.5361 26.4 17.3333C26.4 23.0771 21.7438 27.7333 16 27.7333C10.2562 27.7333 5.6 23.0771 5.6 17.3333C5.6 11.7788 9.95446 7.2413 15.4359 6.94833L13.3065 9.07773L14.4379 10.2091L17.0778 7.56923L17.8556 6.79142Z" fill="white"/>
</svg>
