<svg xmlns="http://www.w3.org/2000/svg" width="24" height="24" viewBox="0 0 24 24" fill="none"><script xmlns=""/>
<path fill-rule="evenodd" clip-rule="evenodd" d="M11.9999 16.8053L16.4733 19.1571L15.619 14.1759L19.2381 10.6481L14.2366 9.92136L11.9999 5.38926L9.76318 9.92136L4.76172 10.6481L8.38081 14.1759L7.52645 19.1571L11.9999 16.8053ZM6.76909 14.6995L5.87678 19.9021C5.7415 20.6908 6.60234 21.3376 7.32773 20.9562L11.9999 18.4999L16.6721 20.9562C17.3804 21.3286 18.2615 20.7098 18.123 19.9021L17.2307 14.6995L21.0106 11.0151C21.5836 10.4565 21.2674 9.42723 20.4564 9.30938L15.2327 8.55034L12.8966 3.81692C12.5425 3.09932 11.4659 3.08203 11.1032 3.81692L8.76708 8.55034L3.54344 9.30938C2.75152 9.42446 2.40237 10.443 2.98922 11.0151L6.76909 14.6995Z" fill="black" fill-opacity="0.9" />
<script xmlns=""/></svg>