<svg width="24" height="24" viewBox="0 0 24 24" fill="none" xmlns="http://www.w3.org/2000/svg">
<path d="M10.5 8.75C10.5 8.33579 10.8358 8 11.25 8H12.75C13.1642 8 13.5 8.33579 13.5 8.75C13.5 9.16421 13.1642 9.5 12.75 9.5H11.25C10.8358 9.5 10.5 9.16421 10.5 8.75Z" fill="white" fill-opacity="0.5"/>
<path d="M11.7 11.75C11.7 11.3358 12.0358 11 12.45 11H15.95C16.3642 11 16.7 11.3358 16.7 11.75C16.7 12.1642 16.3642 12.5 15.95 12.5H12.45C12.0358 12.5 11.7 12.1642 11.7 11.75Z" fill="white" fill-opacity="0.5"/>
<path d="M6.70001 11.75C6.70001 11.3358 7.0358 11 7.45001 11H8.95001C9.36423 11 9.70001 11.3358 9.70001 11.75C9.70001 12.1642 9.36423 12.5 8.95001 12.5H7.45001C7.0358 12.5 6.70001 12.1642 6.70001 11.75Z" fill="white" fill-opacity="0.5"/>
<path fill-rule="evenodd" clip-rule="evenodd" d="M10.3792 16H14.069C14.0239 16.1879 14 16.384 14 16.5857V17.5H11L8.70711 19.79C8.31658 20.1805 7.68342 20.1805 7.29289 19.79C7.10536 19.6025 7 19.3552 7 19.09V17.5H4.5C3.11929 17.5 2 16.3807 2 15V6.5C2 5.11929 3.11929 4 4.5 4L17.5 4C18.8807 4 20 5.11929 20 6.5V8H21.75C22.1642 8 22.5 8.33579 22.5 8.75C22.5 9.16421 22.1642 9.5 21.75 9.5H16.25C15.8358 9.5 15.5 9.16421 15.5 8.75C15.5 8.33579 15.8358 8 16.25 8H18.5V6.5C18.5 5.94772 18.0523 5.5 17.5 5.5H4.5C3.94772 5.5 3.5 5.94772 3.5 6.5V15C3.5 15.5523 3.94772 16 4.5 16H8.5V17.8769L10.3792 16Z" fill="white" fill-opacity="0.5"/>
<path fill-rule="evenodd" clip-rule="evenodd" d="M22.873 15.137C23.1764 15.6723 23.1764 16.3276 22.873 16.8629L22.407 17.6852L21.9339 18.4896C21.622 19.02 21.0545 19.3476 20.4392 19.3525L19.4941 19.36L18.5609 19.3525C17.9456 19.3476 17.3781 19.02 17.0662 18.4896L16.5872 17.6748L16.1271 16.8629C15.8237 16.3276 15.8237 15.6723 16.1271 15.137L16.5931 14.3148L17.0662 13.5103C17.3781 12.9799 17.9456 12.6523 18.5609 12.6474L19.506 12.6399L20.4392 12.6474C21.0545 12.6523 21.622 12.9799 21.9339 13.5103L22.4129 14.3251L22.873 15.137ZM21.5681 16.1232C21.6114 16.0468 21.6114 15.9532 21.5681 15.8767L21.1108 15.07L20.6408 14.2706C20.5963 14.1949 20.5152 14.1481 20.4273 14.1474L19.5 14.14L18.5728 14.1474C18.4849 14.1481 18.4038 14.1949 18.3593 14.2706L17.8893 15.07L17.432 15.8767C17.3887 15.9532 17.3887 16.0468 17.432 16.1232L17.8893 16.93L18.3593 17.7293C18.4038 17.8051 18.4849 17.8519 18.5728 17.8526L19.5 17.8599L20.4273 17.8526C20.5152 17.8519 20.5963 17.8051 20.6408 17.7293L21.1108 16.93L21.5681 16.1232Z" fill="white" fill-opacity="0.5"/>
<circle cx="19.5" cy="16" r="0.75" fill="white" fill-opacity="0.5"/>
</svg>
